<svg xmlns="http://www.w3.org/2000/svg" xmlns:xlink="http://www.w3.org/1999/xlink" width="2200" zoomAndPan="magnify" viewBox="0 0 1650 449.999984" height="600" preserveAspectRatio="xMidYMid meet" version="1.0"><defs><g/><clipPath id="8c28842e2d"><path d="M 501 0.558594 L 1621.601562 0.558594 L 1621.601562 358.878906 L 501 358.878906 Z M 501 0.558594 " clip-rule="nonzero"/></clipPath><clipPath id="36aba45510"><rect x="0" width="1121" y="0" height="359"/></clipPath><clipPath id="d1ff3d4cc4"><path d="M 1.273438 39.570312 L 468.734375 39.570312 L 468.734375 329.203125 L 1.273438 329.203125 Z M 1.273438 39.570312 " clip-rule="nonzero"/></clipPath><clipPath id="83706df176"><rect x="0" width="1622" y="0" height="359"/></clipPath></defs><g transform="matrix(1, 0, 0, 1, 14, 52)"><g clip-path="url(#83706df176)"><g clip-path="url(#8c28842e2d)"><g transform="matrix(1, 0, 0, 1, 501, -0.000000000000014211)"><g clip-path="url(#36aba45510)"><g fill="#545454" fill-opacity="1"><g transform="translate(0.216064, 288.075281)"><g><path d="M 82.15625 0 L 47.75 0 L 47.75 -173.078125 L 4.375 -173.078125 L 4.375 -202.921875 L 47.75 -202.921875 L 47.75 -217.25 C 47.75 -225.46875 48.941406 -233.421875 51.328125 -241.109375 C 53.710938 -248.804688 57.328125 -255.707031 62.171875 -261.8125 C 67.015625 -267.914062 73.179688 -272.753906 80.671875 -276.328125 C 88.160156 -279.910156 97.082031 -281.703125 107.4375 -281.703125 L 141.453125 -281.703125 L 141.453125 -252.859375 L 115.390625 -252.859375 C 108.492188 -252.859375 102.554688 -251.164062 97.578125 -247.78125 C 92.609375 -244.40625 88.796875 -239.832031 86.140625 -234.0625 C 83.484375 -228.289062 82.15625 -221.757812 82.15625 -214.46875 L 82.15625 -202.921875 L 139.859375 -202.921875 L 139.859375 -173.078125 L 82.15625 -173.078125 Z M 82.15625 0 "/></g></g></g><g fill="#545454" fill-opacity="1"><g transform="translate(120.221292, 288.075281)"><g><path d="M 113.796875 5.765625 C 99.867188 5.765625 86.96875 3.015625 75.09375 -2.484375 C 63.226562 -7.992188 52.851562 -15.65625 43.96875 -25.46875 C 35.082031 -35.28125 28.148438 -46.6875 23.171875 -59.6875 C 18.203125 -72.6875 15.71875 -86.613281 15.71875 -101.46875 C 15.71875 -116.320312 18.203125 -130.210938 23.171875 -143.140625 C 28.148438 -156.066406 35.082031 -167.4375 43.96875 -177.25 C 52.851562 -187.070312 63.226562 -194.734375 75.09375 -200.234375 C 86.96875 -205.742188 99.800781 -208.5 113.59375 -208.5 C 125.800781 -208.5 137.140625 -206.507812 147.609375 -202.53125 C 158.085938 -198.550781 167.335938 -192.878906 175.359375 -185.515625 C 183.390625 -178.148438 189.660156 -169.429688 194.171875 -159.359375 L 194.171875 -202.921875 L 227 -202.921875 L 227 0 L 194.171875 0 L 194.171875 -43.171875 C 189.660156 -33.222656 183.390625 -24.566406 175.359375 -17.203125 C 167.335938 -9.847656 158.085938 -4.179688 147.609375 -0.203125 C 137.140625 3.773438 125.867188 5.765625 113.796875 5.765625 Z M 121.359375 -26.265625 C 131.304688 -26.265625 140.625 -28.148438 149.3125 -31.921875 C 158 -35.703125 165.585938 -41.007812 172.078125 -47.84375 C 178.578125 -54.675781 183.679688 -62.664062 187.390625 -71.8125 C 191.109375 -80.96875 192.96875 -90.851562 192.96875 -101.46875 C 192.96875 -111.9375 191.109375 -121.710938 187.390625 -130.796875 C 183.679688 -139.890625 178.546875 -147.847656 171.984375 -154.671875 C 165.421875 -161.503906 157.828125 -166.84375 149.203125 -170.6875 C 140.585938 -174.539062 131.375 -176.46875 121.5625 -176.46875 C 111.613281 -176.46875 102.328125 -174.640625 93.703125 -170.984375 C 85.078125 -167.335938 77.445312 -162.132812 70.8125 -155.375 C 64.1875 -148.613281 59.015625 -140.6875 55.296875 -131.59375 C 51.585938 -122.507812 49.734375 -112.46875 49.734375 -101.46875 C 49.734375 -90.1875 51.625 -79.9375 55.40625 -70.71875 C 59.1875 -61.5 64.359375 -53.570312 70.921875 -46.9375 C 77.484375 -40.3125 85.109375 -35.207031 93.796875 -31.625 C 102.484375 -28.050781 111.671875 -26.265625 121.359375 -26.265625 Z M 121.359375 -26.265625 "/></g></g></g><g fill="#545454" fill-opacity="1"><g transform="translate(356.409254, 288.075281)"><g><path d="M 100.46875 5.765625 C 86.28125 5.765625 73.878906 3.875 63.265625 0.09375 C 52.648438 -3.6875 43.828125 -8.789062 36.796875 -15.21875 C 29.773438 -21.65625 24.503906 -28.953125 20.984375 -37.109375 C 17.472656 -45.265625 15.71875 -53.648438 15.71875 -62.265625 L 48.734375 -62.078125 C 48.867188 -54.773438 50.957031 -48.070312 55 -41.96875 C 59.050781 -35.875 64.921875 -31.035156 72.609375 -27.453125 C 80.304688 -23.867188 89.722656 -22.078125 100.859375 -22.078125 C 116.242188 -22.078125 127.847656 -25.09375 135.671875 -31.125 C 143.503906 -37.164062 147.421875 -45.289062 147.421875 -55.5 C 147.421875 -63.0625 145.363281 -69 141.25 -73.3125 C 137.132812 -77.625 131.265625 -80.9375 123.640625 -83.25 C 116.015625 -85.570312 106.894531 -87.597656 96.28125 -89.328125 C 86.863281 -90.785156 77.878906 -92.804688 69.328125 -95.390625 C 60.773438 -97.972656 53.179688 -101.519531 46.546875 -106.03125 C 39.921875 -110.539062 34.71875 -116.3125 30.9375 -123.34375 C 27.15625 -130.375 25.265625 -138.992188 25.265625 -149.203125 C 25.265625 -160.347656 27.945312 -170.394531 33.3125 -179.34375 C 38.6875 -188.300781 46.78125 -195.429688 57.59375 -200.734375 C 68.40625 -206.035156 81.832031 -208.6875 97.875 -208.6875 C 113.53125 -208.6875 127.191406 -206.066406 138.859375 -200.828125 C 150.535156 -195.585938 159.617188 -188.390625 166.109375 -179.234375 C 172.609375 -170.085938 175.859375 -159.613281 175.859375 -147.8125 L 142.25 -147.8125 C 141.71875 -157.5 137.570312 -165.289062 129.8125 -171.1875 C 122.050781 -177.09375 111.40625 -180.046875 97.875 -180.046875 C 89.125 -180.046875 81.894531 -178.6875 76.1875 -175.96875 C 70.488281 -173.25 66.210938 -169.597656 63.359375 -165.015625 C 60.515625 -160.441406 59.09375 -155.4375 59.09375 -150 C 59.09375 -143.632812 60.515625 -138.394531 63.359375 -134.28125 C 66.210938 -130.175781 71.1875 -126.828125 78.28125 -124.234375 C 85.375 -121.648438 95.222656 -119.296875 107.828125 -117.171875 C 117.109375 -115.710938 126.191406 -113.820312 135.078125 -111.5 C 143.960938 -109.1875 151.953125 -105.90625 159.046875 -101.65625 C 166.148438 -97.414062 171.789062 -91.710938 175.96875 -84.546875 C 180.144531 -77.390625 182.234375 -68.304688 182.234375 -57.296875 C 182.234375 -43.503906 178.785156 -31.898438 171.890625 -22.484375 C 164.992188 -13.066406 155.410156 -6.003906 143.140625 -1.296875 C 130.867188 3.410156 116.644531 5.765625 100.46875 5.765625 Z M 100.46875 5.765625 "/></g></g></g><g fill="#545454" fill-opacity="1"><g transform="translate(528.935478, 288.075281)"><g><path d="M 148.609375 0 L 111.203125 0 C 103.515625 0 95.890625 -0.992188 88.328125 -2.984375 C 80.765625 -4.972656 73.898438 -8.617188 67.734375 -13.921875 C 61.566406 -19.234375 56.625 -26.828125 52.90625 -36.703125 C 49.195312 -46.585938 47.34375 -59.421875 47.34375 -75.203125 L 47.34375 -172.875 L 2.1875 -172.875 L 2.1875 -202.921875 L 47.34375 -202.921875 L 47.34375 -263.203125 L 81.5625 -263.40625 L 81.5625 -202.921875 L 148.609375 -202.921875 L 148.609375 -172.875 L 81.5625 -172.875 L 81.5625 -73.609375 C 81.5625 -64.191406 82.585938 -56.53125 84.640625 -50.625 C 86.703125 -44.726562 89.488281 -40.21875 93 -37.09375 C 96.519531 -33.976562 100.429688 -31.859375 104.734375 -30.734375 C 109.046875 -29.609375 113.457031 -29.046875 117.96875 -29.046875 L 148.609375 -29.046875 Z M 148.609375 0 "/></g></g></g><g fill="#004aad" fill-opacity="1"><g transform="translate(665.25629, 288.075281)"><g><path d="M 119.359375 5.765625 C 104.640625 5.765625 91.015625 2.984375 78.484375 -2.578125 C 65.953125 -8.148438 54.976562 -15.84375 45.5625 -25.65625 C 36.144531 -35.476562 28.816406 -46.851562 23.578125 -59.78125 C 18.335938 -72.71875 15.71875 -86.613281 15.71875 -101.46875 C 15.71875 -116.320312 18.335938 -130.210938 23.578125 -143.140625 C 28.816406 -156.066406 36.144531 -167.4375 45.5625 -177.25 C 54.976562 -187.070312 65.953125 -194.765625 78.484375 -200.328125 C 91.015625 -205.898438 104.640625 -208.6875 119.359375 -208.6875 C 135.546875 -208.6875 150.203125 -205.566406 163.328125 -199.328125 C 176.460938 -193.097656 187.640625 -184.578125 196.859375 -173.765625 C 206.078125 -162.960938 212.675781 -150.53125 216.65625 -136.46875 L 181.4375 -136.46875 C 176.132812 -149.601562 167.941406 -159.550781 156.859375 -166.3125 C 145.785156 -173.082031 133.351562 -176.46875 119.5625 -176.46875 C 110.675781 -176.46875 102.085938 -174.742188 93.796875 -171.296875 C 85.515625 -167.847656 78.054688 -162.875 71.421875 -156.375 C 64.785156 -149.875 59.546875 -141.976562 55.703125 -132.6875 C 51.859375 -123.40625 49.9375 -113 49.9375 -101.46875 C 49.9375 -89.789062 51.890625 -79.3125 55.796875 -70.03125 C 59.710938 -60.75 64.984375 -52.859375 71.609375 -46.359375 C 78.242188 -39.859375 85.707031 -34.882812 94 -31.4375 C 102.289062 -27.988281 110.8125 -26.265625 119.5625 -26.265625 C 133.226562 -26.265625 145.628906 -29.742188 156.765625 -36.703125 C 167.910156 -43.671875 176.132812 -54.113281 181.4375 -68.03125 L 216.453125 -68.03125 C 212.609375 -53.445312 206.109375 -40.617188 196.953125 -29.546875 C 187.804688 -18.472656 176.597656 -9.816406 163.328125 -3.578125 C 150.066406 2.648438 135.410156 5.765625 119.359375 5.765625 Z M 119.359375 5.765625 "/></g></g></g><g fill="#004aad" fill-opacity="1"><g transform="translate(871.005998, 288.075281)"><g><path d="M 67.046875 69.234375 L 32.828125 69.234375 L 32.828125 -202.921875 L 65.65625 -202.921875 L 65.65625 -159.546875 C 70.425781 -168.960938 76.65625 -177.351562 84.34375 -184.71875 C 92.039062 -192.082031 100.960938 -197.882812 111.109375 -202.125 C 121.253906 -206.375 132.164062 -208.5 143.84375 -208.5 C 158.164062 -208.5 171.394531 -205.742188 183.53125 -200.234375 C 195.664062 -194.734375 206.273438 -187.070312 215.359375 -177.25 C 224.441406 -167.4375 231.46875 -156.066406 236.4375 -143.140625 C 241.414062 -130.210938 243.90625 -116.320312 243.90625 -101.46875 C 243.90625 -86.613281 241.382812 -72.6875 236.34375 -59.6875 C 231.300781 -46.6875 224.269531 -35.28125 215.25 -25.46875 C 206.238281 -15.65625 195.695312 -7.992188 183.625 -2.484375 C 171.550781 3.015625 158.421875 5.765625 144.234375 5.765625 C 133.085938 5.765625 122.472656 3.8125 112.390625 -0.09375 C 102.316406 -4.007812 93.332031 -9.582031 85.4375 -16.8125 C 77.550781 -24.039062 71.222656 -32.5625 66.453125 -42.375 L 67.046875 -19.5 Z M 138.265625 -26.0625 C 148.078125 -26.0625 157.289062 -27.882812 165.90625 -31.53125 C 174.53125 -35.175781 182.125 -40.347656 188.6875 -47.046875 C 195.257812 -53.742188 200.4375 -61.703125 204.21875 -70.921875 C 208 -80.140625 209.890625 -90.320312 209.890625 -101.46875 C 209.890625 -112.46875 208.03125 -122.539062 204.3125 -131.6875 C 200.601562 -140.84375 195.460938 -148.769531 188.890625 -155.46875 C 182.328125 -162.164062 174.734375 -167.367188 166.109375 -171.078125 C 157.492188 -174.796875 148.210938 -176.65625 138.265625 -176.65625 C 128.316406 -176.65625 119.03125 -174.734375 110.40625 -170.890625 C 101.789062 -167.046875 94.234375 -161.675781 87.734375 -154.78125 C 81.234375 -147.882812 76.125 -139.890625 72.40625 -130.796875 C 68.695312 -121.710938 66.84375 -111.9375 66.84375 -101.46875 C 66.84375 -90.71875 68.695312 -80.734375 72.40625 -71.515625 C 76.125 -62.296875 81.296875 -54.304688 87.921875 -47.546875 C 94.554688 -40.785156 102.1875 -35.515625 110.8125 -31.734375 C 119.4375 -27.953125 128.585938 -26.0625 138.265625 -26.0625 Z M 138.265625 -26.0625 "/></g></g></g></g></g></g><g clip-path="url(#d1ff3d4cc4)"><path fill="#004aad" d="M 100.429688 74.601562 C 94.398438 74.601562 89.507812 69.710938 89.507812 63.675781 C 89.507812 57.644531 94.398438 52.753906 100.429688 52.753906 L 170.695312 52.753906 C 176.726562 52.753906 181.617188 57.644531 181.617188 63.675781 C 181.617188 69.710938 176.726562 74.601562 170.695312 74.601562 Z M 55.722656 162.0625 C 49.691406 162.0625 44.800781 157.171875 44.800781 151.140625 C 44.800781 145.105469 49.691406 140.214844 55.722656 140.214844 L 130.902344 140.214844 C 136.933594 140.214844 141.824219 145.105469 141.824219 151.140625 C 141.824219 157.171875 136.933594 162.0625 130.902344 162.0625 Z M 12.835938 249.523438 C 6.804688 249.523438 1.914062 244.632812 1.914062 238.601562 C 1.914062 232.566406 6.804688 227.675781 12.835938 227.675781 L 148.515625 227.675781 C 154.546875 227.675781 159.441406 232.566406 159.441406 238.601562 C 159.441406 244.632812 154.546875 249.523438 148.515625 249.523438 Z M 292.003906 118.738281 C 290.226562 112.992188 293.472656 106.890625 299.222656 105.136719 C 304.96875 103.359375 311.066406 106.605469 312.820312 112.355469 L 333.640625 180.269531 C 334.78125 183.976562 333.835938 187.839844 331.488281 190.582031 L 272.171875 259.527344 C 268.226562 264.089844 261.335938 264.617188 256.773438 260.667969 C 252.210938 256.742188 251.683594 249.832031 255.632812 245.269531 L 311.046875 180.886719 L 292.003906 118.761719 Z M 425.664062 286.925781 C 399.449219 313.140625 363.234375 329.351562 323.242188 329.351562 C 283.25 329.351562 247.035156 313.140625 220.820312 286.925781 C 194.605469 260.710938 178.394531 224.496094 178.394531 184.503906 C 178.394531 144.515625 194.605469 108.296875 220.820312 82.082031 C 247.035156 55.867188 283.25 39.65625 323.242188 39.65625 C 363.253906 39.65625 399.449219 55.867188 425.664062 82.082031 C 451.878906 108.296875 468.089844 144.515625 468.089844 184.503906 C 468.089844 224.496094 451.878906 260.710938 425.664062 286.925781 Z M 425.664062 286.925781 " fill-opacity="1" fill-rule="evenodd"/></g></g></g></svg>